<svg xmlns="http://www.w3.org/2000/svg" viewBox="0 0 92.92 92.92">
  <path fill="#969696" d="M32.02 92.71C26.8 88.4 18.9 88.46 11.27 87c-5.35-1.02-7.84-7.59-6.06-12.96.88-2.66.03-4.3-1.38-6.23-5.2-7.14-4.82-12.26 1.4-18.51C19.81 34.69 34.4 20.1 49.01 5.52 55.25-.7 60.53-1.09 67.48 4.26c2 1.53 3.67 2.01 6.26 1.26 8.49-2.47 16.2 5.28 13.71 13.78-.76 2.6-.22 4.27 1.31 6.25 5.2 6.73 4.91 12.19-.98 18.11C73 58.53 58.13 73.32 43.33 88.18c-2.69 2.7-5.71 4.51-11.31 4.53z"/>
  <path d="M16.16 84.7c-3.4.28-5.61-1.43-7.05-4.04-1.47-2.66-1.23-5.5.38-8.06.79-1.25 1.93-2.28 2.98-3.34 18.84-18.87 37.7-37.72 56.55-56.57.94-.94 1.82-2.03 2.94-2.68 3.47-2.03 6.96-2.28 10.06.74 3.28 3.19 3.06 6.81.88 10.44-.67 1.11-1.77 1.98-2.72 2.92-18.84 18.85-37.7 37.7-56.54 56.57-2.14 2.14-4.2 4.39-7.48 4.02zM88.54 33.7c.24 2.98-.76 5.1-2.67 6.99-15.23 15.16-30.41 30.37-45.6 45.57-2.54 2.54-5.42 3.73-9.04 2.52-6.08-2.04-6.65-4.14-2.27-8.53C45.8 63.4 62.61 46.52 79.54 29.77c1.47-1.45 2.67-4.95 5.19-3.43 2.41 1.46 4.32 4.25 3.81 7.36zM4.09 59.24c-.22-2.66.84-4.74 2.74-6.63C22.04 37.46 37.24 22.3 52.36 7.05c2.7-2.72 5.82-3.14 9.18-2.35 5.59 1.31 6.37 4.18 2.4 8.15C47 29.8 30.07 46.76 13.07 63.66c-1.44 1.44-2.9 4.53-4.81 3.53-2.71-1.41-4.48-4.39-4.17-7.95z" fill="#fbfafa" />
  <path fill="#969696" d="M21.69 71.07c.43-3.99 3.02-6.42 6.53-7.65 4.1-1.44 6.62-4.17 8.3-8.02 1.86-4.27 4.59-7.53 9.4-8.94 3.52-1.03 5.85-3.86 7-7.31 1.66-4.98 4.68-8.34 9.87-9.55 4.13-.97 5.98-4.42 8.21-7.51-.18 4.81-3.18 7.48-7.29 8.71-4.94 1.48-7.85 4.57-9.55 9.29-1.41 3.91-3.94 6.81-8.23 7.99-3.59.99-5.91 3.63-7.35 6.97-2.07 4.78-4.97 8.47-10.35 9.96-3 .83-4.4 3.87-6.54 6.06z"/>
</svg>
